<?xml version="1.0" encoding="utf-8"?>
<!-- Generator: Adobe Illustrator 24.1.1, SVG Export Plug-In . SVG Version: 6.00 Build 0)  -->
<svg version="1.1" id="Layer_1" xmlns="http://www.w3.org/2000/svg" xmlns:xlink="http://www.w3.org/1999/xlink" x="0px" y="0px"
	 viewBox="0 0 154.384 195.325" enable-background="new 0 0 154.384 195.325" xml:space="preserve">
<path stroke="#231F20" stroke-miterlimit="10" d="M77.997,0.587L77.19,0.503L0.5,8.543v140.568l76.692,45.633l76.692-45.633V8.543
	L77.997,0.587z M143.852,143.407l-66.66,39.663l-66.66-39.663V85.791l66.374,39.506l0.111,7.159l-45.534-27.1l-0.067,6.951
	l45.715,27.475l0.113,7.35l-45.7-27.186l-0.066,6.95l45.714,27.475l46.152-27.615v-6.982l-0.058,0.034v-2.386v-2.864V97.102
	l20.565-12.281V143.407z M143.798,77.347l-18.236,10.744l-8.419,4.96L76.994,69.168l-0.066,6.951l34.316,20.407l-0.304,0.18
	l-0.739,0.435l-4.876,2.872L76.994,83.159l-0.066,6.951l22.362,13.298l-5.276,3.529l-0.128,0.077l-16.892-9.951l-0.066,6.95
	l11.084,6.527l-11.291,6.779L10.677,78.06l66.139-39.755v0.007L143.798,77.347z M143.852,70.356l-67.02-39.508v-0.01l-0.008,0.005
	l-0.008-0.005v0.01L10.532,70.309V17.578l66.661-6.989l66.659,6.989V70.356z"/>
</svg>
