<svg viewBox="0 0 100 100" xmlns="http://www.w3.org/2000/svg"><defs><style></style></defs><symbol viewBox="0 0 42.084 47.041" id="icon-android"> <path fill="#A4C639" d="M34.144,14.009H7.945c-0.009,0.11-0.018,0.22-0.018,0.333v18.755c0,1.926,1.457,3.49,3.316,3.627v7.435
	c0,1.594,1.291,2.885,2.885,2.885c1.593,0,2.885-1.291,2.885-2.885v-7.421h8.058v7.421c0,1.594,1.291,2.885,2.885,2.885
	c1.595,0,2.886-1.291,2.886-2.885v-7.435c1.858-0.137,3.315-1.701,3.315-3.627V14.342C34.157,14.229,34.153,14.119,34.144,14.009z"/> <path id="android-c-4-9-2-9-2-9" fill="#A4C639" d="M2.886,15.679L2.886,15.679c1.593,0,2.886,1.292,2.886,2.885v12.378
	c0,1.595-1.292,2.886-2.886,2.886l0,0C1.292,33.828,0,32.537,0,30.942V18.564C0,16.97,1.292,15.679,2.886,15.679z"/> <path id="android-c-4-1-7-3-8-4" fill="#A4C639" d="M39.198,15.679L39.198,15.679c1.595,0,2.886,1.292,2.886,2.885v12.378
	c0,1.595-1.291,2.886-2.886,2.886l0,0c-1.594,0-2.885-1.291-2.885-2.886V18.564C36.313,16.97,37.604,15.679,39.198,15.679z"/> <path fill="#A4C639" d="M8.03,11.967h26.026c-0.039-2.783-1.234-5.322-3.187-7.275l2.446-4.235c0.082-0.146,0.031-0.331-0.112-0.415
	c-0.146-0.084-0.331-0.034-0.415,0.111L30.416,4.26c-2.052-1.853-6.249-3.4-9.374-3.4l0,0c-3.016,0-7.322,1.547-9.374,3.4
	L9.296,0.152C9.213,0.007,9.027-0.042,8.881,0.041C8.736,0.125,8.686,0.311,8.77,0.456l2.445,4.235
	C9.265,6.645,8.068,9.184,8.03,11.967z M25.323,6.804c-0.002-0.805,0.664-1.46,1.488-1.462c0.826-0.002,1.494,0.648,1.498,1.454
	c0,0.002,0,0.005,0,0.008c0.002,0.805-0.664,1.46-1.49,1.462c-0.823,0.002-1.493-0.649-1.496-1.454
	C25.323,6.81,25.323,6.807,25.323,6.804z M14.18,6.804c-0.001-0.805,0.665-1.46,1.489-1.462c0.824-0.002,1.494,0.648,1.497,1.454
	c0,0.002,0,0.005,0,0.008c0.002,0.805-0.664,1.46-1.488,1.462c-0.825,0.002-1.495-0.649-1.498-1.454
	C14.18,6.81,14.18,6.807,14.18,6.804z"/> </symbol><symbol viewBox="0 0 46.21 56.753" id="icon-apple"> <path fill="#FFFFFF" d="M38.593,30.15c0.08,8.59,7.535,11.447,7.617,11.483c-0.062,0.203-1.19,4.074-3.928,8.072
	c-2.365,3.457-4.82,6.901-8.688,6.974c-3.799,0.069-5.021-2.253-9.365-2.253c-4.344,0-5.702,2.182-9.298,2.322
	c-3.733,0.143-6.576-3.738-8.961-7.184c-4.875-7.046-8.598-19.91-3.597-28.593c2.484-4.313,6.925-7.043,11.743-7.114
	c3.666-0.069,7.126,2.466,9.366,2.466c2.241,0,6.444-3.049,10.865-2.601c1.851,0.077,7.044,0.747,10.38,5.629
	C44.458,19.519,38.531,22.971,38.593,30.15 M31.453,9.062c1.982-2.4,3.316-5.739,2.952-9.062c-2.856,0.115-6.312,1.904-8.36,4.302
	c-1.836,2.123-3.444,5.522-3.01,8.778C26.218,13.326,29.47,11.461,31.453,9.062"/> </symbol><symbol viewBox="0 0 48 48" id="icon-clip"> <path fill="none" d="M0,0h48v48H0V0z"/> <path d="M34,30h4V14c0-2.21-1.79-4-4-4H18v4h16V30z M14,34V2h-4v8H2v4h8v20c0,2.21,1.79,4,4,4h20v8h4v-8h8v-4H14z"/> </symbol><symbol viewBox="0 0 17.988 13.965" id="icon-email"> <g> <g> <g> <path fill="#FFFFFF" d="M14.914,1.814C16.111,0.816,15.816,0,14.257,0H3.731C2.171,0,1.877,0.816,3.074,1.814l3.742,3.118
				c1.197,0.998,3.158,0.998,4.355,0L14.914,1.814z"/> </g> <g> <path fill="#FFFFFF" d="M11.913,7.044C10.715,8.042,9.717,8.87,9.695,8.879c0,0,0,0-0.021,0.014
				C9.601,8.95,9.523,8.995,9.44,9.029C9.407,9.043,9.374,9.063,9.34,9.077C9.23,9.111,9.117,9.135,9.005,9.135
				c-0.003,0-0.007,0.002-0.01,0.002c0,0,0,0-0.001,0c-0.001,0-0.001,0-0.001,0c-0.003,0-0.007-0.002-0.01-0.002
				C8.87,9.133,8.758,9.111,8.648,9.077C8.614,9.063,8.58,9.043,8.548,9.029C8.465,8.995,8.388,8.95,8.313,8.893
				C8.293,8.879,8.293,8.879,8.293,8.879C8.271,8.868,7.273,8.042,6.075,7.044L2.178,3.796C0.979,2.798,0,3.257,0,4.816v6.315
				c0,1.56,1.275,2.834,2.835,2.834h12.318c1.56,0,2.835-1.274,2.835-2.834V4.816c0-1.559-0.979-2.018-2.178-1.02L11.913,7.044z"/> </g> </g> </g> </symbol><symbol viewBox="0 0 8.672 18.943" id="icon-facebook"> <path d="M6.275,3.357c0.8,0,1.599,0,2.397,0c0-1.119,0-2.237,0-3.356c-0.959,0-1.92,0-2.877,0C2.656,0.181,1.54,2.387,1.948,6.116H0
	v3.517h1.958c0,3.103,0,6.208,0,9.312c1.279,0,2.558,0,3.837,0c0-3.104,0-6.208,0-9.312h2.856V6.116H5.786
	C5.765,5.07,5.751,3.709,6.275,3.357z"/> </symbol><symbol viewBox="0 0 48 48" id="icon-fill"> <path fill="none" d="M0,0h48v48H0V0z"/> <path d="M33.12,17.88L15.24,0l-2.83,2.83l4.76,4.76L6.88,17.88c-1.17,1.17-1.17,3.07,0,4.24l11,11C18.46,33.71,19.23,34,20,34
	s1.54-0.29,2.12-0.88l11-11C34.29,20.95,34.29,19.05,33.12,17.88z M10.41,20L20,10.42L29.59,20H10.41z M38,23c0,0-4,4.33-4,7
	c0,2.21,1.79,4,4,4s4-1.79,4-4C42,27.33,38,23,38,23z"/> <rect y="40" width="48" height="3"/> </symbol><symbol viewBox="0 0 120.78 117.79" id="icon-github"><g id="github-&#x421;&#x43B;&#x43E;&#x439;_2" data-name="&#x421;&#x43B;&#x43E;&#x439; 2"><g id="github-Layer_1" data-name="Layer 1"><path class="cls-1" d="M60.39,0A60.39,60.39,0,0,0,41.3,117.69c3,.56,4.12-1.31,4.12-2.91,0-1.44-.05-6.19-.08-11.24C28.54,107.19,25,96.42,25,96.42c-2.75-7-6.71-8.84-6.71-8.84-5.48-3.75.41-3.67.41-3.67,6.07.43,9.26,6.22,9.26,6.22,5.39,9.23,14.13,6.57,17.57,5,.55-3.9,2.11-6.56,3.84-8.07C36,85.55,21.85,80.37,21.85,57.23A23.35,23.35,0,0,1,28.08,41c-.63-1.52-2.7-7.66.58-16,0,0,5.07-1.62,16.61,6.19a57.36,57.36,0,0,1,30.25,0C87,23.42,92.11,25,92.11,25c3.28,8.32,1.22,14.46.59,16a23.34,23.34,0,0,1,6.21,16.21c0,23.2-14.12,28.3-27.57,29.8,2.16,1.87,4.09,5.55,4.09,11.18,0,8.08-.06,14.59-.06,16.57,0,1.61,1.08,3.49,4.14,2.9A60.39,60.39,0,0,0,60.39,0Z"/><path class="cls-2" d="M22.87,86.7c-.13.3-.6.39-1,.19s-.69-.61-.55-.91.61-.39,1-.19.69.61.54.91Z"/><path class="cls-2" d="M25.32,89.43c-.29.27-.85.14-1.24-.28a.92.92,0,0,1-.17-1.25c.3-.27.84-.14,1.24.28s.47,1,.17,1.25Z"/><path class="cls-2" d="M27.7,92.91c-.37.26-1,0-1.35-.52s-.37-1.18,0-1.44,1,0,1.35.51.37,1.19,0,1.45Z"/><path class="cls-2" d="M31,96.27A1.13,1.13,0,0,1,29.41,96c-.53-.49-.68-1.18-.34-1.54s1-.27,1.56.23.68,1.18.33,1.54Z"/><path class="cls-2" d="M35.46,98.22c-.15.47-.82.69-1.51.49s-1.13-.76-1-1.24.82-.7,1.51-.49,1.13.76,1,1.24Z"/><path class="cls-2" d="M40.4,98.58c0,.5-.56.91-1.28.92s-1.3-.38-1.31-.87.56-.92,1.29-.93,1.3.39,1.3.88Z"/><path class="cls-2" d="M45,97.8c.09.49-.41,1-1.12,1.12s-1.35-.17-1.44-.66.42-1,1.12-1.12,1.35.17,1.44.66Z"/></g></g></symbol><symbol viewBox="521.939 473.064 12.545 11.99" id="icon-heart"> <g> <path d="M528.174,485.055c-0.212,0-0.412-0.091-0.552-0.249c-3.798-4.324-4.643-5.298-4.858-5.572l-0.004,0.003
		c-0.529-0.675-0.821-1.518-0.821-2.373c0-2.095,1.704-3.799,3.799-3.799c0.934,0,1.804,0.32,2.484,0.898
		c0.696-0.578,1.56-0.898,2.463-0.898c2.095,0,3.799,1.704,3.799,3.799c0,0.909-0.318,1.754-0.896,2.381l-4.86,5.561
		C528.587,484.964,528.386,485.055,528.174,485.055L528.174,485.055z M523.929,478.349c0.208,0.255,2.471,2.839,4.243,4.858
		l4.323-4.944c0.34-0.369,0.519-0.86,0.519-1.399c0-1.285-1.045-2.331-2.33-2.331c-0.729,0-1.421,0.344-1.9,0.943
		c-0.142,0.178-0.352,0.267-0.585,0.275c-0.227-0.003-0.44-0.111-0.575-0.294c-0.441-0.587-1.129-0.925-1.887-0.925
		c-1.285,0-2.33,1.046-2.33,2.331c0,0.678,0.275,1.171,0.507,1.467C523.919,478.336,523.925,478.342,523.929,478.349z"/> </g> </symbol><symbol viewBox="0 0 154.384 195.325" id="icon-htmlacademy"> <path stroke="#231F20" stroke-miterlimit="10" d="M77.997,0.587L77.19,0.503L0.5,8.543v140.568l76.692,45.633l76.692-45.633V8.543
	L77.997,0.587z M143.852,143.407l-66.66,39.663l-66.66-39.663V85.791l66.374,39.506l0.111,7.159l-45.534-27.1l-0.067,6.951
	l45.715,27.475l0.113,7.35l-45.7-27.186l-0.066,6.95l45.714,27.475l46.152-27.615v-6.982l-0.058,0.034v-2.386v-2.864V97.102
	l20.565-12.281V143.407z M143.798,77.347l-18.236,10.744l-8.419,4.96L76.994,69.168l-0.066,6.951l34.316,20.407l-0.304,0.18
	l-0.739,0.435l-4.876,2.872L76.994,83.159l-0.066,6.951l22.362,13.298l-5.276,3.529l-0.128,0.077l-16.892-9.951l-0.066,6.95
	l11.084,6.527l-11.291,6.779L10.677,78.06l66.139-39.755v0.007L143.798,77.347z M143.852,70.356l-67.02-39.508v-0.01l-0.008,0.005
	l-0.008-0.005v0.01L10.532,70.309V17.578l66.661-6.989l66.659,6.989V70.356z"/> </symbol><symbol viewBox="0 0 146.3 40.375" id="icon-logodesktop"> <g> <path fill="#FFFFFF" d="M71.874,18.661c0-0.708,0.58-1.288,1.256-1.288h7.18c5.087,0,8.436,2.704,8.436,7.146v0.063
		c0,4.86-4.057,7.373-8.854,7.373h-5.475v6.825c0,0.708-0.58,1.287-1.289,1.287c-0.676,0-1.256-0.58-1.256-1.287L71.874,18.661
		L71.874,18.661z M79.988,29.641c3.734,0,6.182-1.996,6.182-4.959v-0.063c0-3.221-2.414-4.894-6.053-4.894h-5.699v9.917h5.57V29.641
		z"/> <path fill="#FFFFFF" d="M93.603,18.5c0-0.708,0.579-1.288,1.255-1.288c0.709,0,1.288,0.58,1.288,1.288v20.283
		c0,0.708-0.579,1.287-1.288,1.287c-0.676,0-1.255-0.579-1.255-1.287V18.5z"/> <path fill="#FFFFFF" d="M102.744,18.532c0-0.676,0.58-1.256,1.256-1.256h0.354c0.58,0,0.935,0.29,1.288,0.74l13.684,17.45V18.468
		c0-0.676,0.547-1.256,1.256-1.256c0.676,0,1.225,0.58,1.225,1.256v20.349c0,0.677-0.48,1.19-1.158,1.19h-0.129
		c-0.548,0-0.936-0.321-1.318-0.772l-13.976-17.867v17.449c0,0.677-0.547,1.257-1.257,1.257c-0.676,0-1.223-0.58-1.223-1.257V18.532
		H102.744z"/> <path fill="#FFFFFF" d="M128.173,18.5c0-0.708,0.58-1.288,1.257-1.288c0.708,0,1.286,0.58,1.286,1.288v12.331l12.848-13.168
		c0.29-0.257,0.579-0.451,0.998-0.451c0.676,0,1.225,0.612,1.225,1.256c0,0.354-0.162,0.644-0.42,0.901l-7.984,7.92l8.564,10.561
		c0.225,0.291,0.354,0.547,0.354,0.936c0,0.676-0.577,1.288-1.285,1.288c-0.482,0-0.807-0.259-1.03-0.58l-8.401-10.464l-4.863,4.861
		v4.895c0,0.708-0.578,1.288-1.286,1.288c-0.677,0-1.257-0.58-1.257-1.288V18.5H128.173z"/> </g> <path fill="#D22856" d="M98.498,9.875c-2.002,0-3.623-1.623-3.623-3.624c0,2.001-1.623,3.624-3.625,3.624
	c2.002,0,3.625,1.623,3.625,3.624C94.874,11.498,96.496,9.875,98.498,9.875z"/> <g> <path fill="#FFFFFF" d="M43.094,19.313c0.246,0,0.489,0.014,0.73,0.033c-0.437-0.728-1.227-1.221-2.136-1.221
		c-0.877,0-1.614-0.568-1.884-1.354c-0.727,0.208-1.425,0.482-2.089,0.816c0.062,0.017,0.122,0.038,0.188,0.038c1.104,0,2,0.896,2,2
		c0,0.096-0.015,0.188-0.028,0.281C40.875,19.524,41.959,19.313,43.094,19.313z"/> <path fill="#FFFFFF" d="M60.462,28.016c-0.002-0.009-5.175-21.365-5.175-21.365C54.926,4.303,52.694,0,46.688,0
		c-0.829,0-1.5,0.671-1.5,1.5s0.671,1.5,1.5,1.5c4.856,0,5.575,3.729,5.639,4.143l4.767,19.701h-2.073
		c-0.445-3.557-2.453-6.628-5.305-8.522c-0.897,0.379-1.529,1.269-1.529,2.303c0,0.088-0.015,0.171-0.026,0.256
		c1.991,1.358,3.415,3.489,3.829,5.965c0.082,0.488,0.135,0.987,0.135,1.5c0,0.512-0.053,1.012-0.135,1.5
		c-0.716,4.271-4.421,7.53-8.896,7.53c-4.475,0-8.181-3.259-8.896-7.53c-0.082-0.488-0.135-0.988-0.135-1.5
		c0-0.513,0.053-1.012,0.135-1.5c0.147-0.879,0.427-1.712,0.808-2.484c-1.034-0.077-1.852-0.932-1.852-1.984
		c0-0.19-0.077-0.358-0.192-0.488c-0.938,1.469-1.569,3.149-1.795,4.957h-1.82c-0.741-5.927-5.802-10.531-11.927-10.531
		S6.235,20.917,5.493,26.844H3.42L8.187,7.143C8.25,6.729,8.97,3,13.826,3c0.829,0,1.5-0.671,1.5-1.5S14.655,0,13.826,0
		C7.82,0,5.588,4.303,5.227,6.651c0,0-5.173,21.356-5.175,21.365c-0.266,1.109,0.531,1.826,1.426,1.826
		c0.012,0,0.023,0.004,0.036,0.004h3.982c0.079,0.629,0.215,1.237,0.387,1.831c0.059-0.107,0.102-0.224,0.102-0.354
		c0-1.104,0.896-2,2-2c0.166,0,0.324,0.024,0.478,0.063c-0.043-0.343-0.074-0.688-0.074-1.042c0-0.512,0.053-1.011,0.135-1.5
		c0.715-4.271,4.421-7.531,8.896-7.531s8.18,3.26,8.896,7.531c0.082,0.489,0.135,0.988,0.135,1.5c0,0.512-0.053,1.012-0.135,1.5
		c-0.715,4.272-4.421,7.531-8.896,7.531c-2.022,0-3.883-0.67-5.386-1.794c-0.35,0.302-0.8,0.491-1.299,0.491
		c-0.413,0-0.749,0.336-0.749,0.748c0,0.289-0.065,0.563-0.176,0.812c2.075,1.708,4.722,2.743,7.614,2.743
		c6.125,0,11.185-4.604,11.927-10.529h1.814c0.742,5.926,5.802,10.529,11.927,10.529s11.186-4.604,11.927-10.529H59
		c0.012,0,0.023-0.005,0.036-0.005C59.931,29.842,60.728,29.125,60.462,28.016z"/> </g> <g> <g> <path fill="#D22856" d="M50.686,16.125c-2.485,0-4.499-2.014-4.499-4.499c0,2.485-2.014,4.499-4.499,4.499
			c2.485,0,4.499,2.014,4.499,4.499C46.187,18.139,48.2,16.125,50.686,16.125z"/> </g> </g> <g> <g> <path fill="#D22856" d="M37.904,19.626c-1.519,0-2.749-1.23-2.749-2.749c0,1.519-1.23,2.749-2.749,2.749
			c1.519,0,2.749,1.229,2.749,2.749C35.155,20.855,36.386,19.626,37.904,19.626z"/> </g> </g> <g> <g> <path fill="#D22856" d="M10.734,34.072c-1.519,0-2.749-1.23-2.749-2.75c0,1.52-1.23,2.75-2.749,2.75
			c1.519,0,2.749,1.229,2.749,2.748C7.985,35.303,9.215,34.072,10.734,34.072z"/> </g> </g> </symbol><symbol viewBox="0 0 74.43 22.86" id="icon-logomobile"> <g> <path fill="#FFFFFF" d="M0,1.45c0-0.71,0.58-1.29,1.26-1.29h7.18c5.09,0,8.44,2.7,8.44,7.15v0.06c0,4.86-4.06,7.37-8.85,7.37H2.54
		v6.83c0,0.71-0.58,1.29-1.29,1.29C0.58,22.86,0,22.28,0,21.57V1.45z M8.11,12.43c3.73,0,6.18-2,6.18-4.96V7.41
		c0-3.22-2.41-4.89-6.05-4.89h-5.7v9.92H8.11z"/> <path fill="#FFFFFF" d="M21.73,1.29c0-0.71,0.58-1.29,1.25-1.29c0.71,0,1.29,0.58,1.29,1.29v20.28c0,0.71-0.58,1.29-1.29,1.29
		c-0.68,0-1.25-0.58-1.25-1.29L21.73,1.29L21.73,1.29z"/> <path fill="#FFFFFF" d="M30.87,1.32c0-0.68,0.58-1.26,1.26-1.26h0.35c0.58,0,0.93,0.29,1.29,0.74l13.68,17.45v-17
		C47.45,0.58,48,0,48.71,0c0.68,0,1.22,0.58,1.22,1.26V21.6c0,0.68-0.48,1.19-1.16,1.19h-0.13c-0.55,0-0.93-0.32-1.32-0.77
		L33.35,4.15V21.6c0,0.68-0.55,1.26-1.26,1.26c-0.68,0-1.22-0.58-1.22-1.26V1.32z"/> <path fill="#FFFFFF" d="M56.3,1.29C56.3,0.58,56.88,0,57.56,0c0.71,0,1.29,0.58,1.29,1.29v12.33L71.69,0.45
		c0.29-0.26,0.58-0.45,1-0.45c0.68,0,1.22,0.61,1.22,1.26c0,0.35-0.16,0.64-0.42,0.9l-7.98,7.92l8.56,10.56
		c0.22,0.29,0.35,0.55,0.35,0.93c0,0.68-0.58,1.29-1.29,1.29c-0.48,0-0.81-0.26-1.03-0.58l-8.4-10.46l-4.86,4.86v4.89
		c0,0.71-0.58,1.29-1.29,1.29c-0.68,0-1.26-0.58-1.26-1.29L56.3,1.29L56.3,1.29z"/> </g> </symbol><symbol viewBox="0 0 146.3 40.375" id="icon-logotablet"> <g> <path fill="#FFFFFF" d="M71.874,18.661c0-0.708,0.58-1.288,1.256-1.288h7.18c5.087,0,8.436,2.704,8.436,7.146v0.063
		c0,4.86-4.057,7.373-8.854,7.373h-5.475v6.825c0,0.708-0.58,1.287-1.289,1.287c-0.676,0-1.256-0.58-1.256-1.287L71.874,18.661
		L71.874,18.661z M79.988,29.641c3.734,0,6.182-1.996,6.182-4.959v-0.063c0-3.221-2.414-4.894-6.053-4.894h-5.699v9.917h5.57V29.641
		z"/> <path fill="#FFFFFF" d="M93.603,18.5c0-0.708,0.579-1.288,1.255-1.288c0.709,0,1.288,0.58,1.288,1.288v20.283
		c0,0.708-0.579,1.287-1.288,1.287c-0.676,0-1.255-0.579-1.255-1.287V18.5z"/> <path fill="#FFFFFF" d="M102.744,18.532c0-0.676,0.58-1.256,1.256-1.256h0.354c0.58,0,0.935,0.29,1.288,0.74l13.684,17.45V18.468
		c0-0.676,0.547-1.256,1.256-1.256c0.676,0,1.225,0.58,1.225,1.256v20.349c0,0.677-0.48,1.19-1.158,1.19h-0.129
		c-0.548,0-0.936-0.321-1.318-0.772l-13.976-17.867v17.449c0,0.677-0.547,1.257-1.257,1.257c-0.676,0-1.223-0.58-1.223-1.257V18.532
		H102.744z"/> <path fill="#FFFFFF" d="M128.173,18.5c0-0.708,0.58-1.288,1.257-1.288c0.708,0,1.286,0.58,1.286,1.288v12.331l12.848-13.168
		c0.29-0.257,0.579-0.451,0.998-0.451c0.676,0,1.225,0.612,1.225,1.256c0,0.354-0.162,0.644-0.42,0.901l-7.984,7.92l8.564,10.561
		c0.225,0.291,0.354,0.547,0.354,0.936c0,0.676-0.577,1.288-1.285,1.288c-0.482,0-0.807-0.259-1.03-0.58l-8.401-10.464l-4.863,4.861
		v4.895c0,0.708-0.578,1.288-1.286,1.288c-0.677,0-1.257-0.58-1.257-1.288V18.5H128.173z"/> </g> <path fill="#FFFFFF" d="M60.498,28.266"/> <path fill="#FFFFFF" d="M60.462,28.016c-0.002-0.009-5.175-21.365-5.175-21.365C54.926,4.303,52.694,0,46.688,0
	c-0.829,0-1.5,0.671-1.5,1.5s0.671,1.5,1.5,1.5c4.856,0,5.575,3.729,5.639,4.143l4.767,19.701h-2.073
	c-0.742-5.927-5.802-10.531-11.927-10.531s-11.186,4.604-11.927,10.531h-1.82c-0.741-5.927-5.802-10.531-11.927-10.531
	S6.235,20.917,5.493,26.844H3.42L8.187,7.143C8.25,6.729,8.97,3,13.826,3c0.829,0,1.5-0.671,1.5-1.5S14.655,0,13.826,0
	C7.82,0,5.588,4.303,5.227,6.651c0,0-5.173,21.356-5.175,21.365c-0.266,1.109,0.531,1.826,1.426,1.826
	c0.012,0,0.023,0.004,0.036,0.004h3.982c0.741,5.926,5.802,10.53,11.927,10.53s11.185-4.604,11.927-10.53h1.814
	c0.742,5.926,5.802,10.53,11.927,10.53s11.186-4.604,11.927-10.53H59c0.012,0,0.023-0.004,0.036-0.004
	C59.931,29.842,60.728,29.125,60.462,28.016z M26.315,29.844c-0.715,4.272-4.421,7.531-8.896,7.531s-8.18-3.259-8.896-7.531
	c-0.082-0.488-0.135-0.988-0.135-1.5c0-0.512,0.053-1.011,0.135-1.5c0.715-4.271,4.421-7.531,8.896-7.531s8.18,3.26,8.896,7.531
	c0.082,0.489,0.135,0.988,0.135,1.5C26.45,28.855,26.397,29.355,26.315,29.844z M51.99,29.844c-0.716,4.272-4.421,7.531-8.896,7.531
	c-4.475,0-8.181-3.259-8.896-7.531c-0.082-0.488-0.135-0.988-0.135-1.5c0-0.512,0.053-1.011,0.135-1.5
	c0.716-4.271,4.421-7.531,8.896-7.531c4.475,0,8.181,3.26,8.896,7.531c0.082,0.489,0.135,0.988,0.135,1.5
	C52.125,28.855,52.072,29.355,51.99,29.844z"/> </symbol><symbol viewBox="0 0 595.28 61.905" id="icon-maptriangle"> <polygon points="297.64,61.905 0,0 595.28,0 "/> </symbol><symbol viewBox="0 0 78.672 63.789" id="icon-qutes"> <g> <path d="M34.967,7.063L30.713,0C28.272,1.495,0,12.207,0,39.617c0,7.23,0.336,24.172,18.9,24.172
		c11.187,0,13.94-10.279,13.94-13.584c0-21.977-21.382-14.178-21.382-14.178C11.458,17.957,31.263,9.184,34.967,7.063z"/> </g> <g> <path d="M78.672,7.063L74.418,0c-2.439,1.495-30.713,12.207-30.713,39.617c0,7.23,0.337,24.172,18.9,24.172
		c11.187,0,13.939-10.279,13.939-13.584c0-21.977-21.381-14.178-21.381-14.178C55.165,17.957,74.969,9.184,78.672,7.063z"/> </g> </symbol><symbol viewBox="-35.422 -7.96 31.92 31.92" id="icon-saturate"> <g> <path fill="#231F20" d="M-19.462-3.96c6.595,0,11.96,5.365,11.96,11.96c0,6.595-5.365,11.96-11.96,11.96S-31.422,14.595-31.422,8
		C-31.422,1.405-26.057-3.96-19.462-3.96 M-19.462-7.96c-8.814,0-15.96,7.145-15.96,15.96c0,8.814,7.146,15.96,15.96,15.96
		S-3.502,16.814-3.502,8C-3.502-0.815-10.648-7.96-19.462-7.96L-19.462-7.96z"/> </g> <path d="M-19.462,16.331c4.706,0,8.52-3.813,8.52-8.52c0-4.705-3.813-8.519-8.52-8.519"/> </symbol><symbol viewBox="0 0 19.697 19.695" id="icon-tel"> <path fill="#FFFFFF" d="M9.848,0C6.34,0,2.823,0.628,1.546,1.878c-1.058,1.04-1.412,2.874-1.529,4.035c0,0-0.017,0.114-0.017,0.165
	c0,0.454,0.369,0.819,0.819,0.819c0.054,0,2.028-0.161,3.218-0.259c0.029-0.004,0.059-0.008,0.086-0.017
	C4.566,6.61,4.924,6.25,4.924,5.803l0.003-1.617c0-0.5,0.407-0.901,0.907-0.901h8.027c0.499,0,0.907,0.401,0.907,0.901l0.003,1.617
	c0,0.447,0.355,0.808,0.802,0.82c0.027,0.009,0.056,0.013,0.085,0.017c1.19,0.098,3.164,0.259,3.217,0.259
	c0.451,0,0.822-0.365,0.822-0.819c0-0.051-0.017-0.165-0.017-0.165c-0.118-1.161-0.473-2.995-1.53-4.035
	C16.873,0.628,13.356,0,9.848,0z M9.848,10.67c-0.908,0-1.644,0.732-1.644,1.64s0.734,1.642,1.644,1.642
	c0.905,0,1.641-0.733,1.641-1.642C11.488,11.404,10.754,10.67,9.848,10.67z M8.616,6.975V5.951c0-0.567-0.46-1.026-1.025-1.026
	S6.567,5.384,6.567,5.951v1.023L1.03,12.888c-0.382,0.376-0.619,0.895-0.619,1.47v1.646c0,0.907,0.734,1.643,1.641,1.643h0.411
	v1.023c0,0.567,0.46,1.025,1.026,1.025c0.565,0,1.024-0.458,1.024-1.025v-1.023h10.669v1.023c0,0.567,0.46,1.025,1.024,1.025
	c0.567,0,1.026-0.458,1.026-1.025v-1.023h0.411c0.904,0,1.64-0.734,1.64-1.643v-1.646c0-0.575-0.236-1.094-0.618-1.47L13.13,6.975
	V5.951c0-0.567-0.459-1.026-1.024-1.026c-0.567,0-1.027,0.459-1.027,1.026v1.023H8.616z M9.848,9.028
	c1.814,0,3.281,1.469,3.281,3.282c0,1.814-1.468,3.282-3.281,3.282c-1.813,0-3.281-1.468-3.281-3.282
	C6.567,10.496,8.034,9.028,9.848,9.028z"/> </symbol><symbol viewBox="0 0 298 345.097" id="icon-time"> <path d="M264.568,102.055l5.354-5.355c7.718-7.717,9.124-18.938,3.126-24.935c-5.997-5.997-17.217-4.59-24.934,3.127l-5.387,5.385
	C221.768,63.292,196.109,51.875,168,48.297v-9.583h7.658c10.914,0,19.843-8.711,19.843-19.357S186.573,0,175.659,0h-53.317
	C111.429,0,102.5,8.711,102.5,19.357s8.929,19.357,19.842,19.357H130v9.583C56.681,57.629,0,120.244,0,196.097
	c0,82.291,66.709,149,149,149c82.29,0,149-66.709,149-149C298,160.434,285.465,127.703,264.568,102.055z M149,306.264
	c-60.844,0-110.167-49.323-110.167-110.167C38.833,135.253,88.156,85.93,149,85.93c60.843,0,110.167,49.323,110.167,110.167
	C259.167,256.941,209.843,306.264,149,306.264z"/> </symbol><symbol viewBox="0 0 17.5 14.663" id="icon-twitter"> <g id="twitter-W6EeEF_1_"> <g> <path d="M11.283,0.153c1.736-0.485,3.074,0.263,3.685,1.151c0.694-0.226,1.372-0.47,2.072-0.692
			c-0.004,0.841-0.538,1.478-0.883,1.727C16.861,2.506,17.5,1.86,17.5,1.86c-0.175,0.976-1.035,1.746-1.611,1.977
			C15.65,10.429,12.617,14.792,5.507,14.66c-0.538,0,0.077,0-0.46,0c-0.422,0-4.29-0.449-5.047-1.843
			c2.341,0.192,4.011-0.412,4.835-1.149c-0.989-0.293-2.761-0.465-3.07-2.881c0.362,0.104,0.583,0.223,1.228,0.116
			C1.757,8.067,0.385,7.366,0.461,5.218c0.294,0.32,1.1,0.523,1.381,0.462c-0.725-0.235-2.03-3.281-0.921-4.836
			C2.794,2.654,4.769,4.364,8.29,4.528C8.506,2.288,9.461,0.787,11.283,0.153z"/> </g> </g> </symbol><symbol viewBox="0 0 43.922 41.992" id="icon-windows"> <g> <path id="windows-path5058" fill="#F05423" d="M20.874,19.953H0V0h20.874V19.953z"/> <path id="windows-path5060" fill="#84C441" d="M43.922,19.953H23.049V0h20.873V19.953z"/> <path id="windows-path5062" fill="#2DABE2" d="M20.873,41.992H0V22.04h20.873V41.992z"/> <path id="windows-path5064" fill="#F9BC15" d="M43.922,41.992H23.049V22.04h20.873V41.992z"/> </g> </symbol><symbol viewBox="0 0 14.641 13.96" id="icon-youtube"> <path d="M1.775,13.78C0.799,14.257,0,13.757,0,12.671V1.29c0-1.088,0.799-1.585,1.775-1.109l12.133,5.932
	c0.975,0.478,0.975,1.258,0,1.736L1.775,13.78z"/> </symbol></svg>